<?xml version="1.0" encoding="UTF-8" standalone="no"?>
<!DOCTYPE svg PUBLIC "-//W3C//DTD SVG 1.1//EN" "http://www.w3.org/Graphics/SVG/1.1/DTD/svg11.dtd">
<svg xmlns:xl="http://www.w3.org/1999/xlink" xmlns="http://www.w3.org/2000/svg" version="1.1" xmlns:dc="http://purl.org/dc/elements/1.1/" viewBox="0 0 806 537" width="806" height="537">
  <defs>
    <filter id="Shadow" filterUnits="userSpaceOnUse" x="-80.6" y="-53.7">
      <feGaussianBlur in="SourceAlpha" result="blur" stdDeviation="1.308"/>
      <feOffset in="blur" result="offset" dx="0" dy="2"/>
      <feFlood flood-color="black" flood-opacity=".5" result="flood"/>
      <feComposite in="flood" in2="offset" operator="in"/>
    </filter>
    <marker orient="auto" overflow="visible" markerUnits="strokeWidth" id="FilledArrow_Marker" stroke-linejoin="miter" stroke-miterlimit="10" viewBox="-1 -4 10 8" markerWidth="10" markerHeight="8" color="black">
      <g>
        <path d="M 8 0 L 0 -3 L 0 3 Z" fill="currentColor" stroke="currentColor" stroke-width="1"/>
      </g>
    </marker>
    <marker orient="auto" overflow="visible" markerUnits="strokeWidth" id="FilledArrow_Marker_2" stroke-linejoin="miter" stroke-miterlimit="10" viewBox="-9 -4 10 8" markerWidth="10" markerHeight="8" color="black">
      <g>
        <path d="M -8 0 L 0 3 L 0 -3 Z" fill="currentColor" stroke="currentColor" stroke-width="1"/>
      </g>
    </marker>
  </defs>
  <g id="Canvas_1" stroke-opacity="1" stroke="none" stroke-dasharray="none" fill="none" fill-opacity="1">
    <title>Canvas 1</title>
    <g id="Canvas_1_Layer_1">
      <title>Layer 1</title>
      <g id="Graphic_170_shadow" filter="url(#Shadow)">
        <rect x="134.84803" y="217.5235" width="45.99998" height="33.35363" fill="white"/>
        <rect x="134.84803" y="217.5235" width="45.99998" height="33.35363" stroke="black" stroke-linecap="round" stroke-linejoin="round" stroke-width="1"/>
      </g>
      <g id="Graphic_171_shadow" filter="url(#Shadow)">
        <rect x="134.84801" y="330.11466" width="45.99998" height="33.35363" fill="white"/>
        <rect x="134.84801" y="330.11466" width="45.99998" height="33.35363" stroke="black" stroke-linecap="round" stroke-linejoin="round" stroke-width="1"/>
      </g>
      <g id="Graphic_174_shadow" filter="url(#Shadow)">
        <rect x="134.84801" y="273.81907" width="45.99998" height="33.35363" fill="white"/>
        <rect x="134.84801" y="273.81907" width="45.99998" height="33.35363" stroke="black" stroke-linecap="round" stroke-linejoin="round" stroke-width="1"/>
      </g>
      <g id="Graphic_218_shadow" filter="url(#Shadow)">
        <rect x="133.5662" y="105.21295" width="45.99998" height="33.35363" fill="white"/>
        <rect x="133.5662" y="105.21295" width="45.99998" height="33.35363" stroke="black" stroke-linecap="round" stroke-linejoin="round" stroke-width="1"/>
      </g>
      <g id="Graphic_53">
        <text transform="translate(315.12825 5)" fill="black">
          <tspan font-family="Helvetica" font-size="20" fill="black" x="2.7783203" y="19" xml:space="preserve">Madek Architecture </tspan>
        </text>
      </g>
      <g id="Graphic_55">
        <text transform="translate(605.0974 494.67194)" fill="black">
          <tspan font-family="Helvetica" font-size="9" fill="black" x="53.500854" y="9" xml:space="preserve">Thomas Schank</tspan>
          <tspan font-family="Helvetica" font-size="9" fill="black" x="53.740356" y="20" xml:space="preserve">Update 2024-12</tspan>
        </text>
      </g>
      <g id="Line_142">
        <line x1="555.59056" y1="229.09878" x2="461.93244" y2="279.6294" stroke="#d6d6d6" stroke-linecap="round" stroke-linejoin="round" stroke-dasharray="4.0,4.0" stroke-width="1"/>
      </g>
      <g id="Line_146">
        <line x1="13.874859" y1="492.65545" x2="96.47409" y2="492.65545" marker-end="url(#FilledArrow_Marker)" stroke="black" stroke-linecap="round" stroke-linejoin="round" stroke-width="1"/>
      </g>
      <g id="Graphic_147">
        <rect x="30.741173" y="482.65545" width="54" height="20" fill="#ebebeb"/>
        <text transform="translate(36.101173 487.65545)" fill="black">
          <tspan font-family="Helvetica Neue" font-size="8" fill="black" x="0" y="8" xml:space="preserve">http request</tspan>
        </text>
      </g>
      <g id="Line_148">
        <line x1="128.97638" y1="493.55955" x2="221.4756" y2="492.65545" stroke="black" stroke-linecap="round" stroke-linejoin="round" stroke-dasharray="4.0,4.0" stroke-width="1"/>
      </g>
      <g id="Graphic_149">
        <rect x="165.28547" y="483.10203" width="21" height="20" fill="#ebebeb"/>
        <text transform="translate(170.52547 488.10203)" fill="black">
          <tspan font-family="Helvetica Neue" font-size="8" fill="black" x="2184919e-19" y="8" xml:space="preserve">sql</tspan>
        </text>
      </g>
      <g id="Graphic_158">
        <rect x="374.83487" y="487.4246" width="216.8504" height="39.81102" fill="#cbcbcb"/>
        <rect x="374.83487" y="487.4246" width="216.8504" height="39.81102" stroke="black" stroke-linecap="round" stroke-linejoin="round" stroke-width="1"/>
        <text transform="translate(379.83487 492.4246)" fill="black">
          <tspan font-family="Helvetica" font-size="10" fill="black" x="35.998444" y="10" xml:space="preserve">HTTP  Server / Reverse Proxy </tspan>
        </text>
      </g>
      <g id="Graphic_169">
        <rect x="117.6378" y="206.14545" width="77.8568" height="229.6063" fill="#76d6ff"/>
        <rect x="117.6378" y="206.14545" width="77.8568" height="229.6063" stroke="black" stroke-linecap="round" stroke-linejoin="round" stroke-width="1"/>
      </g>
      <g id="Graphic_170">
        <rect x="134.84803" y="217.5235" width="45.99998" height="33.35363" fill="white"/>
        <rect x="134.84803" y="217.5235" width="45.99998" height="33.35363" stroke="black" stroke-linecap="round" stroke-linejoin="round" stroke-width="1"/>
        <text transform="translate(139.84803 223.2003)" fill="black">
          <tspan font-family="Helvetica" font-size="9" fill="black" x="7.327871" y="9" xml:space="preserve">Web-</tspan>
          <tspan font-family="Helvetica" font-size="9" fill="black" x="1.9951077" y="20" xml:space="preserve">browser</tspan>
        </text>
      </g>
      <g id="Graphic_171">
        <rect x="134.84801" y="330.11466" width="45.99998" height="33.35363" fill="white"/>
        <rect x="134.84801" y="330.11466" width="45.99998" height="33.35363" stroke="black" stroke-linecap="round" stroke-linejoin="round" stroke-width="1"/>
        <text transform="translate(139.84801 341.29147)" fill="black">
          <tspan font-family="Helvetica" font-size="9" fill="black" x="14.249258" y="9" xml:space="preserve">...</tspan>
        </text>
      </g>
      <g id="Graphic_174">
        <rect x="134.84801" y="273.81907" width="45.99998" height="33.35363" fill="white"/>
        <rect x="134.84801" y="273.81907" width="45.99998" height="33.35363" stroke="black" stroke-linecap="round" stroke-linejoin="round" stroke-width="1"/>
        <text transform="translate(139.84801 279.4959)" fill="black">
          <tspan font-family="Helvetica" font-size="9" fill="black" x="7.327871" y="9" xml:space="preserve">Web-</tspan>
          <tspan font-family="Helvetica" font-size="9" fill="black" x="1.9951077" y="20" xml:space="preserve">browser</tspan>
        </text>
      </g>
      <g id="Graphic_175">
        <rect x="232.44095" y="256.11292" width="20" height="54" fill="#cbcbcb"/>
        <rect x="232.44095" y="256.11292" width="20" height="54" stroke="black" stroke-linecap="round" stroke-linejoin="round" stroke-width="1"/>
        <text transform="translate(237.44095 305.11292) rotate(-90)" fill="black">
          <tspan font-family="Helvetica" font-size="8" fill="black" x="20.888672" y="8" xml:space="preserve">/</tspan>
        </text>
      </g>
      <g id="Line_178">
        <line x1="195.4946" y1="320.9486" x2="224.7327" y2="297.3846" marker-end="url(#FilledArrow_Marker)" stroke="black" stroke-linecap="round" stroke-linejoin="round" stroke-width="1"/>
      </g>
      <g id="Line_179">
        <line x1="252.44095" y1="285.06457" x2="293.49855" y2="293.07755" marker-end="url(#FilledArrow_Marker)" stroke="black" stroke-linecap="round" stroke-linejoin="round" stroke-width="1"/>
      </g>
      <g id="Graphic_257">
        <rect x="232.44095" y="180.93668" width="20" height="38" fill="#cbcbcb"/>
        <rect x="232.44095" y="180.93668" width="20" height="38" stroke="black" stroke-linecap="round" stroke-linejoin="round" stroke-width="1"/>
      </g>
      <g id="Line_260">
        <line x1="201.3734" y1="255.5815" x2="232.44095" y2="213.48626" marker-start="url(#FilledArrow_Marker_2)" stroke="black" stroke-linecap="round" stroke-linejoin="round" stroke-width="1"/>
      </g>
      <g id="Graphic_252">
        <path d="M 327.80614 251.52674 L 327.80614 188.78002 C 327.80614 184.4505 359.46355 180.93668 398.47 180.93668 C 437.47645 180.93668 469.13386 184.4505 469.13386 188.78002 L 469.13386 251.52674 C 469.13386 255.85626 437.47645 259.37008 398.47 259.37008 C 359.46355 259.37008 327.80614 255.85626 327.80614 251.52674" fill="#d5fc79"/>
        <path d="M 327.80614 251.52674 L 327.80614 188.78002 C 327.80614 184.4505 359.46355 180.93668 398.47 180.93668 C 437.47645 180.93668 469.13386 184.4505 469.13386 188.78002 L 469.13386 251.52674 C 469.13386 255.85626 437.47645 259.37008 398.47 259.37008 C 359.46355 259.37008 327.80614 255.85626 327.80614 251.52674 M 327.80614 188.78002 C 327.80614 193.10954 359.46355 196.62336 398.47 196.62336 C 437.47645 196.62336 469.13386 193.10954 469.13386 188.78002" stroke="black" stroke-linecap="round" stroke-linejoin="round" stroke-width="1"/>
        <text transform="translate(332.80614 218.57505)" fill="black">
          <tspan font-family="Helvetica" font-size="9" fill="black" x="25.148483" y="9" xml:space="preserve">File System Storage</tspan>
        </text>
      </g>
      <g id="Line_258">
        <line x1="327.80614" y1="210.99746" x2="262.25888" y2="202.5045" marker-end="url(#FilledArrow_Marker)" stroke="black" stroke-linecap="round" stroke-linejoin="round" stroke-width="1"/>
      </g>
      <g id="Graphic_259">
        <rect x="268.3067" y="196.74994" width="38" height="18" fill="white"/>
        <text transform="translate(273.4737 201.74994)" fill="black">
          <tspan font-family="Helvetica Neue" font-size="6" fill="black" x="53645977e-20" y="6" xml:space="preserve">X-Sendfile</tspan>
        </text>
      </g>
      <g id="Line_213">
        <line x1="555.59056" y1="172.95933" x2="494.5538" y2="155.02145" stroke="#d6d6d6" stroke-linecap="round" stroke-linejoin="round" stroke-dasharray="4.0,4.0" stroke-width="1"/>
      </g>
      <g id="Graphic_211">
        <rect x="303.21523" y="97.90551" width="191.33858" height="58" fill="#ff7e79"/>
        <rect x="303.21523" y="97.90551" width="191.33858" height="58" stroke="black" stroke-linecap="round" stroke-linejoin="round" stroke-width="1"/>
        <text transform="translate(308.21523 114.90551)" fill="black">
          <tspan font-family="Helvetica" font-size="12" fill="black" x="50.64683" y="11" xml:space="preserve">API v1 / API v2</tspan>
          <tspan font-family="Helvetica" font-size="8" fill="black" x="67.110695" y="22" xml:space="preserve">JVM (clojure) </tspan>
        </text>
      </g>
      <g id="Graphic_214">
        <rect x="232.44095" y="108.07596" width="20" height="54" fill="#cbcbcb"/>
        <rect x="232.44095" y="108.07596" width="20" height="54" stroke="black" stroke-linecap="round" stroke-linejoin="round" stroke-width="1"/>
        <text transform="translate(237.44095 157.07596) rotate(-90)" fill="black">
          <tspan font-family="Helvetica" font-size="8" fill="black" x="15.550781" y="8" xml:space="preserve">/api</tspan>
        </text>
      </g>
      <g id="Line_216">
        <line x1="252.44095" y1="134.5537" x2="293.3287" y2="132.41829" marker-end="url(#FilledArrow_Marker)" stroke="black" stroke-linecap="round" stroke-linejoin="round" stroke-width="1"/>
      </g>
      <g id="Graphic_217">
        <rect x="117.77223" y="87.87402" width="77.8568" height="68.0315" fill="#76d6ff"/>
        <rect x="117.77223" y="87.87402" width="77.8568" height="68.0315" stroke="black" stroke-linecap="round" stroke-linejoin="round" stroke-width="1"/>
      </g>
      <g id="Graphic_218">
        <rect x="133.5662" y="105.21295" width="45.99998" height="33.35363" fill="white"/>
        <rect x="133.5662" y="105.21295" width="45.99998" height="33.35363" stroke="black" stroke-linecap="round" stroke-linejoin="round" stroke-width="1"/>
        <text transform="translate(138.5662 112.88976)" fill="black">
          <tspan font-family="Helvetica" font-size="9" fill="black" x="6.495108" y="9" xml:space="preserve">Client</tspan>
          <tspan font-family="Helvetica" font-size="6" fill="black" x="8.000967" y="17" xml:space="preserve">(JSON)</tspan>
        </text>
      </g>
      <g id="Line_219">
        <line x1="195.62903" y1="121.88978" x2="222.91178" y2="129.5749" marker-end="url(#FilledArrow_Marker)" stroke="black" stroke-linecap="round" stroke-linejoin="round" stroke-width="1"/>
      </g>
      <g id="Group_220">
        <g id="Graphic_222">
          <path d="M 555.59056 233.5748 L 555.59056 151.93701 C 555.59056 146.304 585.7684 141.73228 622.9518 141.73228 C 660.1352 141.73228 690.313 146.304 690.313 151.93701 L 690.313 233.5748 C 690.313 239.2078 660.1352 243.77953 622.9518 243.77953 C 585.7684 243.77953 555.59056 239.2078 555.59056 233.5748" fill="#d5fc79"/>
          <path d="M 555.59056 233.5748 L 555.59056 151.93701 C 555.59056 146.304 585.7684 141.73228 622.9518 141.73228 C 660.1352 141.73228 690.313 146.304 690.313 151.93701 L 690.313 233.5748 C 690.313 239.2078 660.1352 243.77953 622.9518 243.77953 C 585.7684 243.77953 555.59056 239.2078 555.59056 233.5748 M 555.59056 151.93701 C 555.59056 157.57002 585.7684 162.14173 622.9518 162.14173 C 660.1352 162.14173 690.313 157.57002 690.313 151.93701" stroke="black" stroke-linecap="round" stroke-linejoin="round" stroke-width="1"/>
          <text transform="translate(560.59056 167.14173)" fill="black">
            <tspan font-family="Helvetica" font-size="12" fill="black" x="8.326084" y="11" xml:space="preserve">Relational Database</tspan>
            <tspan font-family="Helvetica" font-size="9" fill="black" x="38.10343" y="23" xml:space="preserve">(Postgresql)</tspan>
          </text>
        </g>
        <g id="Graphic_221">
          <rect x="574.2103" y="205.73025" width="97.48296" height="32.17379" fill="#ff7e79"/>
          <rect x="574.2103" y="205.73025" width="97.48296" height="32.17379" stroke="black" stroke-linecap="round" stroke-linejoin="round" stroke-width="1"/>
          <text transform="translate(579.2103 210.81714)" fill="black">
            <tspan font-family="Helvetica" font-size="10" fill="black" x="1.776146" y="10" xml:space="preserve">Stored-Procedures</tspan>
            <tspan font-family="Helvetica" font-size="8" fill="black" x="22.620384" y="20" xml:space="preserve">(PL/pgSQL)</tspan>
          </text>
        </g>
      </g>
      <g id="Line_265">
        <line x1="569.4375" y1="239.7711" x2="421.54166" y2="369.7055" stroke="#d6d6d6" stroke-linecap="round" stroke-linejoin="round" stroke-dasharray="4.0,4.0" stroke-width="1"/>
      </g>
      <g id="Graphic_237">
        <rect x="245.19685" y="487.4246" width="108.86907" height="39.81102" fill="#ff7e79"/>
        <rect x="245.19685" y="487.4246" width="108.86907" height="39.81102" stroke="black" stroke-linecap="round" stroke-linejoin="round" stroke-width="1"/>
        <text transform="translate(250.19685 495.3301)" fill="black">
          <tspan font-family="Helvetica" font-size="10" fill="black" x="17.757286" y="10" xml:space="preserve">Core Service / </tspan>
          <tspan font-family="Helvetica" font-size="10" fill="black" x="23.584923" y="22" xml:space="preserve">Component</tspan>
        </text>
      </g>
      <g id="Graphic_239"/>
      <g id="Line_256">
        <line x1="398.7337" y1="279.6294" x2="398.68777" y2="269.26996" marker-end="url(#FilledArrow_Marker)" stroke="black" stroke-linecap="round" stroke-linejoin="round" stroke-width="1"/>
      </g>
      <g id="Line_261">
        <line x1="398.7556" y1="155.90551" x2="398.68834" y2="171.0368" marker-end="url(#FilledArrow_Marker)" stroke="black" stroke-linecap="round" stroke-linejoin="round" stroke-width="1"/>
      </g>
      <g id="Line_262">
        <line x1="184.4109" y1="161.38387" x2="232.44095" y2="193.29309" marker-start="url(#FilledArrow_Marker_2)" stroke="black" stroke-linecap="round" stroke-linejoin="round" stroke-width="1"/>
      </g>
      <g id="Graphic_263">
        <rect x="303.21523" y="369.7055" width="191.33858" height="39.81102" fill="#ff7e79"/>
        <rect x="303.21523" y="369.7055" width="191.33858" height="39.81102" stroke="black" stroke-linecap="round" stroke-linejoin="round" stroke-width="1"/>
        <text transform="translate(308.21523 372.611)" fill="black">
          <tspan font-family="Helvetica" font-size="12" fill="black" x="49.42222" y="11" xml:space="preserve">Admin-Webapp</tspan>
          <tspan font-family="Helvetica" font-size="8" fill="black" x="65.7689" y="22" xml:space="preserve">Ruby on Rails</tspan>
        </text>
      </g>
      <g id="Graphic_264">
        <rect x="227.3793" y="349.27816" width="20" height="54" fill="#cbcbcb"/>
        <rect x="227.3793" y="349.27816" width="20" height="54" stroke="black" stroke-linecap="round" stroke-linejoin="round" stroke-width="1"/>
        <text transform="translate(232.3793 398.27816) rotate(-90)" fill="black">
          <tspan font-family="Helvetica" font-size="8" fill="black" x="9.994141" y="8" xml:space="preserve">/admin</tspan>
        </text>
      </g>
      <g id="Line_266">
        <line x1="195.4946" y1="320.9486" x2="221.40397" y2="355.1748" marker-end="url(#FilledArrow_Marker)" stroke="black" stroke-linecap="round" stroke-linejoin="round" stroke-width="1"/>
      </g>
      <g id="Line_267">
        <line x1="247.3793" y1="377.1037" x2="293.3488" y2="380.89864" marker-end="url(#FilledArrow_Marker)" stroke="black" stroke-linecap="round" stroke-linejoin="round" stroke-width="1"/>
      </g>
      <g id="Graphic_111">
        <rect x="303.21523" y="279.6294" width="191.33858" height="68.0315" fill="#ff7e79"/>
        <rect x="303.21523" y="279.6294" width="191.33858" height="68.0315" stroke="black" stroke-linecap="round" stroke-linejoin="round" stroke-width="1"/>
        <text transform="translate(308.21523 296.64515)" fill="black">
          <tspan font-family="Helvetica" font-size="12" fill="black" x="68.4271" y="11" xml:space="preserve">Webapp</tspan>
          <tspan font-family="Helvetica" font-size="8" fill="black" x="65.7689" y="22" xml:space="preserve">Ruby on Rails</tspan>
        </text>
      </g>
      <g id="Graphic_269">
        <text transform="translate(250.19685 46.85935)" fill="black">
          <tspan font-family="Helvetica" font-size="20" fill="black" x="2.7783203" y="19" xml:space="preserve"> Systems, Services, and Interaction </tspan>
        </text>
      </g>
    </g>
  </g>
</svg>
